<svg xmlns="http://www.w3.org/2000/svg" width="89" height="89" fill="none" viewBox="0 0 89 89">
  <path fill="url(#a)" fill-rule="evenodd" d="M66.75 2.781a2.781 2.781 0 1 0-5.563 0c0 2.336-.723 5.903-2.813 8.805-1.987 2.76-5.324 5.101-11.093 5.101a2.781 2.781 0 0 0 0 5.563c5.769 0 9.106 2.341 11.093 5.102 2.09 2.902 2.813 6.468 2.813 8.804a2.781 2.781 0 1 0 5.563 0c0-2.336.724-5.902 2.813-8.804 1.988-2.76 5.325-5.102 11.093-5.102a2.781 2.781 0 1 0 0-5.563c-5.768 0-9.105-2.34-11.093-5.101-2.09-2.902-2.813-6.469-2.813-8.805Zm3.248 16.688a17.242 17.242 0 0 1-4.949-4.633 18.946 18.946 0 0 1-1.08-1.683 18.97 18.97 0 0 1-1.08 1.683 17.242 17.242 0 0 1-4.95 4.633 17.24 17.24 0 0 1 4.95 4.633 19.2 19.2 0 0 1 1.08 1.682 18.97 18.97 0 0 1 1.08-1.682 17.24 17.24 0 0 1 4.949-4.633Z" clip-rule="evenodd"/>
  <path fill="url(#b)" fill-rule="evenodd" d="M33.375 19.469a2.781 2.781 0 1 0-5.563 0v.035a20.729 20.729 0 0 1-.047.962 31.335 31.335 0 0 1-.35 2.891c-.403 2.425-1.207 5.617-2.785 8.774-1.574 3.147-3.89 6.209-7.312 8.49-3.405 2.27-8.07 3.879-14.537 3.879a2.781 2.781 0 1 0 0 5.563c6.467 0 11.132 1.608 14.537 3.878 3.422 2.282 5.738 5.344 7.312 8.49 1.578 3.158 2.382 6.349 2.786 8.774.2 1.206.3 2.205.35 2.892a20.729 20.729 0 0 1 .046.962v.032a2.781 2.781 0 1 0 5.563.003v-.035l.005-.185c.006-.17.018-.434.042-.777.05-.687.149-1.686.35-2.892.404-2.425 1.207-5.616 2.786-8.774 1.573-3.146 3.89-6.208 7.312-8.49 3.405-2.27 8.07-3.879 14.536-3.879a2.781 2.781 0 1 0 0-5.562c-6.466 0-11.131-1.609-14.536-3.879-3.422-2.281-5.739-5.343-7.312-8.49-1.579-3.157-2.382-6.349-2.786-8.774a31.335 31.335 0 0 1-.35-2.891 20.729 20.729 0 0 1-.046-.962l-.001-.035ZM44.436 47.28a26.24 26.24 0 0 1-3.652-2.031c-4.4-2.934-7.298-6.825-9.201-10.631a33.005 33.005 0 0 1-.99-2.173 33.06 33.06 0 0 1-.988 2.173c-1.903 3.806-4.802 7.697-9.202 10.63a26.245 26.245 0 0 1-3.652 2.032 26.235 26.235 0 0 1 3.652 2.032c4.4 2.933 7.299 6.824 9.202 10.63.364.729.692 1.455.989 2.174.296-.719.625-1.445.989-2.173 1.903-3.807 4.802-7.698 9.201-10.631a26.25 26.25 0 0 1 3.652-2.032Z" clip-rule="evenodd"/>
  <path fill="url(#c)" fill-rule="evenodd" d="M69.531 50.063a2.781 2.781 0 0 1 2.781 2.78c0 2.337.724 5.903 2.814 8.805 1.987 2.76 5.324 5.102 11.093 5.102a2.781 2.781 0 0 1 0 5.563c-5.769 0-9.106 2.34-11.093 5.101-2.09 2.902-2.814 6.469-2.814 8.805a2.781 2.781 0 0 1-5.562 0c0-2.336-.724-5.903-2.813-8.805-1.988-2.76-5.325-5.102-11.093-5.102a2.781 2.781 0 1 1 0-5.562c5.768 0 9.105-2.341 11.093-5.102 2.09-2.902 2.813-6.468 2.813-8.804a2.781 2.781 0 0 1 2.781-2.782Zm1.08 14.835a17.24 17.24 0 0 0 4.95 4.633 17.242 17.242 0 0 0-4.95 4.633c-.395.55-.754 1.112-1.08 1.683a18.97 18.97 0 0 0-1.08-1.683 17.242 17.242 0 0 0-4.949-4.633 17.24 17.24 0 0 0 4.949-4.633 18.97 18.97 0 0 0 1.08-1.682 19.2 19.2 0 0 0 1.08 1.682Z" clip-rule="evenodd"/>
  <defs>
    <linearGradient id="a" x1="-5.91" x2="88.379" y1="-38.938" y2="-23.331" gradientUnits="userSpaceOnUse">
      <stop stop-color="#75ACFF"/>
      <stop offset=".995" stop-color="#CFB4FF"/>
    </linearGradient>
    <linearGradient id="b" x1="-5.91" x2="88.379" y1="-38.938" y2="-23.331" gradientUnits="userSpaceOnUse">
      <stop stop-color="#75ACFF"/>
      <stop offset=".995" stop-color="#CFB4FF"/>
    </linearGradient>
    <linearGradient id="c" x1="-5.91" x2="88.379" y1="-38.938" y2="-23.331" gradientUnits="userSpaceOnUse">
      <stop stop-color="#75ACFF"/>
      <stop offset=".995" stop-color="#CFB4FF"/>
    </linearGradient>
  </defs>
</svg>
